<svg id="Capa_1" enable-background="new 0 0 512 512" height="512" viewBox="0 0 512 512" width="512" xmlns="http://www.w3.org/2000/svg"><g><g><g><g><path d="m358.147 159.379h-20.115c-2.451 0-4.437-1.987-4.437-4.437v-88.274c0-2.451 1.987-4.437 4.437-4.437h20.115c2.451 0 4.437 1.987 4.437 4.437v88.274c0 2.45-1.986 4.437-4.437 4.437z" fill="#68dbf9"/><path d="m362.584 66.67v88.27c0 2.45-1.988 4.437-4.437 4.437h-16.577c2.449 0 4.437-1.988 4.437-4.437v-88.27c0-2.449-1.988-4.437-4.437-4.437h16.578c2.449 0 4.436 1.988 4.436 4.437z" fill="#21c1f8"/></g><g><path d="m333.63 47.736c0 8.191 6.795 14.796 15.056 14.484 8.649-.327 14.797-8.351 13.791-16.948-1.057-9.03-7.764-14.772-12.34-17.69-1.843-1.175-4.26-.416-5.148 1.581-2.743 6.161-11.359 9.107-11.359 18.573z" fill="#fcc16d"/><path d="m348.687 62.224c-3.976.151-7.614-1.305-10.321-3.781 6.594-.479 11.226-6.683 10.454-13.312-.621-5.316-3.745-9.185-6.789-11.768 1.207-1.296 2.263-2.645 2.955-4.198.887-1.997 3.31-2.76 5.147-1.589 4.579 2.92 11.288 8.662 12.344 17.696 1.004 8.592-5.146 16.624-13.79 16.952z" fill="#fca62f"/></g></g><g><path d="m191.864 224.439-88.197-88.198c-3.905-3.905-3.905-10.237 0-14.142l88.197-88.197c3.905-3.905 10.237-3.905 14.142 0l88.197 88.197c3.905 3.905 3.905 10.237 0 14.142l-88.197 88.198c-3.905 3.906-10.236 3.906-14.142 0z" fill="#6c3328"/><g><path d="m286.31 114.209c-25.87 20.1-74.32 35.73-132.79 41.84-9.88 1.03-18.12 2.89-24.54 5.5l-11.26-11.26c8.7-4.62 20.14-7.69 34.24-9.16 34.48-3.61 66.07-10.76 91.37-20.69 13.23-5.19 24.17-10.96 32.29-16.93z" fill="#54231d"/></g><path d="m294.2 136.239-19.18 19.19c3.76-3.91 3.71-10.15-.14-14l-88.2-88.2c-3.91-3.9-10.24-3.9-14.14 0l19.32-19.33c3.91-3.9 10.24-3.9 14.15 0l88.19 88.2c3.91 3.91 3.91 10.24 0 14.14z" fill="#54231d"/><path d="m70.14 198.219h371.72v166.66h-371.72z" fill="#ba5d4f"/><path d="m410.753 198.219h31.107v166.66h-31.107z" fill="#a34f41"/><path d="m441.86 198.219v51.43c-8.08 3.53-12.28 9.39-26.23 9.39-19.96 0-19.96-12-39.91-12-19.96 0-19.96 12-39.91 12-19.96 0-19.96-12-39.91-12-19.96 0-19.96 12-39.91 12s-19.95-12-39.91-12c-19.95 0-19.95 12-39.9 12-19.96 0-19.96-12-39.91-12s-19.95 12-39.91 12c-13.94 0-18.14-5.86-26.22-9.39v-51.43z" fill="#a34f41"/><g><g><ellipse cx="365.983" cy="157.991" fill="#99d53b" rx="34.503" ry="22.873" transform="matrix(.707 -.707 .707 .707 -4.523 305.063)"/><path d="m382.159 174.163c-10.98 10.966-27.05 13.705-40.574 8.228-1.286-3.167-2.116-6.472-2.489-9.832 8.837.705 17.909-2.309 24.657-9.072 8.74-8.74 11.229-21.352 7.482-32.29 6.444-.871 13.055-.083 19.153 2.392 5.475 13.525 2.737 29.608-8.229 40.574z" fill="#8dc637"/></g><g><g><path d="m349.521 164.885c0-20.275-16.436-57.511-36.711-57.511s-36.711 37.236-36.711 57.511 16.436 29.77 36.711 29.77 36.711-9.495 36.711-29.77z" fill="#fb3a82"/><path d="m349.524 164.889c0 20.27-16.44 29.77-36.71 29.77-2.15 0-4.26-.11-6.31-.33 12.76-3.54 21.71-12.43 21.71-27.17 0-17.33-12.37-47.43-28.76-54.43 4.14-3.35 8.65-5.36 13.36-5.36 20.27 0 36.71 37.24 36.71 57.52z" fill="#fb1466"/></g></g></g><path d="m455.55 203.749v15.83c0 2.58-1.97 4.7-4.54 4.98-10.79 1.15-14.82 6.37-22.39 9.45.42-.72.65-1.55.65-2.43v-27.83c0-8.29-6.71-15-15-15h26.28c8.28 0 15 6.71 15 15z" fill="#ffd496"/><g><path d="m56.454 219.58c0 2.58 1.968 4.704 4.533 4.977 15.555 1.66 17.059 11.771 35.375 11.771 19.954 0 19.954-12 39.909-12 19.954 0 19.954 12 39.908 12 19.952 0 19.952-12 39.903-12 19.954 0 19.954 12 39.908 12s19.954-12 39.909-12 19.955 12 39.91 12 19.955-12 39.909-12c19.957 0 19.957 12 39.915 12 18.319 0 19.823-10.111 35.381-11.771 2.566-.274 4.534-2.397 4.534-4.977v-15.831c0-8.284-6.716-15-15-15h-369.094c-8.284 0-15 6.716-15 15z" fill="#fee7c9"/><path d="m455.55 203.75v15.83c0 2.58-1.97 4.7-4.54 4.98-11.84 1.26-15.54 7.42-24.7 10.29v-31.1c0-8.29-6.72-15-15-15h29.24c8.28 0 15 6.71 15 15z" fill="#ffd496"/></g><g><g><circle cx="113.493" cy="329.934" fill="#6c3328" r="27.936"/><path d="m141.426 329.933c0 15.424-12.505 27.939-27.93 27.939-4.613 0-8.974-1.117-12.812-3.099 11.992-1.928 21.136-12.307 21.136-24.839s-9.145-22.911-21.136-24.839c3.838-1.982 8.199-3.099 12.812-3.099 15.425-.001 27.93 12.513 27.93 27.937z" fill="#54231d"/></g><g><g><g><g><path d="m41.999 333.194c0 15.19 12.601 27.437 27.92 26.859 16.039-.606 27.439-15.487 25.574-31.429-1.96-16.744-14.399-27.394-22.883-32.804-3.417-2.179-7.899-.771-9.547 2.932-5.085 11.424-21.064 16.888-21.064 34.442z" fill="#fff1e2"/></g></g><g><path d="m69.916 360.051c-4.055.152-7.915-.596-11.396-2.049 9.639-4.37 15.679-15.061 14.356-26.348-1.355-11.645-8.327-20.016-14.963-25.481 2.093-2.299 3.936-4.684 5.15-7.417 1.648-3.708 6.126-5.118 9.542-2.939 8.49 5.411 20.927 16.058 22.889 32.811 1.865 15.94-9.542 30.816-25.578 31.423z" fill="#fee7c9"/></g></g></g><g><circle cx="207.07" cy="329.934" fill="#6c3328" r="27.936"/><path d="m235.003 329.933c0 15.424-12.505 27.939-27.93 27.939-4.613 0-8.974-1.117-12.812-3.099 11.992-1.928 21.136-12.307 21.136-24.839s-9.145-22.911-21.136-24.839c3.838-1.982 8.199-3.099 12.812-3.099 15.424-.001 27.93 12.513 27.93 27.937z" fill="#54231d"/></g><g><g><g><g><path d="m135.576 333.194c0 15.19 12.601 27.437 27.92 26.859 16.039-.606 27.439-15.487 25.574-31.429-1.959-16.745-14.398-27.394-22.883-32.804-3.417-2.179-7.899-.771-9.547 2.932-5.085 11.424-21.064 16.888-21.064 34.442z" fill="#fff1e2"/></g></g><g><path d="m163.492 360.051c-4.055.152-7.915-.596-11.396-2.049 9.639-4.37 15.679-15.061 14.356-26.348-1.355-11.645-8.327-20.016-14.963-25.481 2.093-2.299 3.936-4.684 5.15-7.417 1.648-3.708 6.126-5.118 9.542-2.939 8.49 5.411 20.927 16.058 22.889 32.811 1.866 15.94-9.541 30.816-25.578 31.423z" fill="#fee7c9"/></g></g></g><g><circle cx="300.647" cy="329.934" fill="#6c3328" r="27.936"/><path d="m328.58 329.933c0 15.424-12.505 27.939-27.93 27.939-4.613 0-8.974-1.117-12.812-3.099 11.992-1.928 21.136-12.307 21.136-24.839s-9.145-22.911-21.136-24.839c3.838-1.982 8.199-3.099 12.812-3.099 15.424-.001 27.93 12.513 27.93 27.937z" fill="#54231d"/></g><g><g><g><g><path d="m229.153 333.194c0 15.19 12.601 27.437 27.92 26.859 16.039-.606 27.439-15.487 25.574-31.429-1.959-16.745-14.398-27.394-22.883-32.804-3.417-2.179-7.899-.771-9.547 2.932-5.086 11.424-21.064 16.888-21.064 34.442z" fill="#fff1e2"/></g></g><g><path d="m257.069 360.051c-4.055.152-7.915-.596-11.396-2.049 9.639-4.37 15.679-15.061 14.356-26.348-1.355-11.645-8.327-20.016-14.963-25.481 2.093-2.299 3.936-4.684 5.15-7.417 1.648-3.708 6.126-5.118 9.542-2.939 8.49 5.411 20.927 16.058 22.889 32.811 1.866 15.94-9.541 30.816-25.578 31.423z" fill="#fee7c9"/></g></g></g><g><circle cx="394.224" cy="329.934" fill="#6c3328" r="27.936"/><path d="m422.156 329.933c0 15.424-12.505 27.939-27.93 27.939-4.613 0-8.974-1.117-12.812-3.099 11.992-1.928 21.136-12.307 21.136-24.839s-9.145-22.911-21.136-24.839c3.838-1.982 8.199-3.099 12.812-3.099 15.425-.001 27.93 12.513 27.93 27.937z" fill="#54231d"/></g><g><g><g><g><path d="m322.729 333.194c0 15.19 12.601 27.437 27.92 26.859 16.039-.606 27.439-15.487 25.574-31.429-1.959-16.745-14.398-27.394-22.883-32.804-3.417-2.179-7.899-.771-9.547 2.932-5.085 11.424-21.064 16.888-21.064 34.442z" fill="#fff1e2"/></g></g><g><path d="m350.646 360.051c-4.055.152-7.915-.596-11.396-2.049 9.639-4.37 15.679-15.061 14.356-26.348-1.355-11.645-8.327-20.016-14.963-25.481 2.093-2.299 3.936-4.684 5.15-7.417 1.648-3.708 6.126-5.118 9.542-2.939 8.49 5.411 20.927 16.058 22.889 32.811 1.866 15.94-9.541 30.816-25.578 31.423z" fill="#fee7c9"/></g></g></g><g><g><g><g><path d="m416.306 333.194c0 15.19 12.601 27.437 27.92 26.859 16.039-.606 27.439-15.487 25.574-31.429-1.959-16.745-14.398-27.394-22.883-32.804-3.417-2.179-7.899-.771-9.547 2.932-5.085 11.424-21.064 16.888-21.064 34.442z" fill="#fff1e2"/></g></g><g><path d="m444.223 360.051c-4.055.152-7.915-.596-11.396-2.049 9.639-4.37 15.679-15.061 14.356-26.348-1.355-11.645-8.327-20.016-14.963-25.481 2.093-2.299 3.936-4.684 5.15-7.417 1.648-3.708 6.126-5.118 9.542-2.939 8.49 5.411 20.927 16.058 22.889 32.811 1.865 15.94-9.541 30.816-25.578 31.423z" fill="#fee7c9"/></g></g></g></g><g><g><path d="m234.982 378.932h42.035v71.389h-42.035z" fill="#24d1f8"/><path d="m234.982 378.932h42.035v40.168h-42.035z" fill="#1faaee"/><g><path d="m471.647 395.332h-431.294c-18.144 0-32.853-14.709-32.853-32.853v-4.15c0-6.048 4.903-10.951 10.951-10.951h475.098c6.048 0 10.951 4.903 10.951 10.951v4.15c0 18.144-14.709 32.853-32.853 32.853z" fill="#9ce6fb"/><path d="m504.496 358.333v4.141c0 18.146-14.707 32.853-32.853 32.853h-36.138c18.146 0 32.853-14.707 32.853-32.853v-4.141c0-6.056-4.895-10.951-10.951-10.951h36.138c6.056 0 10.951 4.895 10.951 10.951z" fill="#68dbf9"/></g><path d="m348.804 484.975h-185.608c-5.886 0-10.657-4.771-10.657-10.657v-7.317c0-11.772 9.543-21.314 21.314-21.314h164.294c11.772 0 21.314 9.543 21.314 21.314v7.317c0 5.885-4.771 10.657-10.657 10.657z" fill="#9ce6fb"/><path d="m359.456 467.003v7.311c0 5.893-4.764 10.657-10.657 10.657h-29.254c5.893 0 10.657-4.764 10.657-10.657v-7.311c0-11.776-9.538-21.314-21.314-21.314h29.254c11.776 0 21.314 9.538 21.314 21.314z" fill="#68dbf9"/></g></g></g></g><g><g><g><g><g><path d="m304.677 153.431c4.143 0 7.5-3.358 7.5-7.5v-2.658c0-4.142-3.357-7.5-7.5-7.5s-7.5 3.358-7.5 7.5v2.658c0 4.142 3.357 7.5 7.5 7.5z"/><path d="m323.039 166.82c4.143 0 7.5-3.358 7.5-7.5v-2.658c0-4.142-3.357-7.5-7.5-7.5s-7.5 3.358-7.5 7.5v2.658c0 4.142 3.357 7.5 7.5 7.5z"/><path d="m493.549 339.879h-16.899c.863-3.957 1.079-8.062.6-12.131-2.364-20.194-17.49-32.634-26.298-38.253-.513-.327-1.047-.606-1.591-.862v-56.231c.769-.156 1.568-.294 2.448-.388 6.407-.684 11.238-6.03 11.238-12.435v-15.831c0-12.407-10.094-22.5-22.5-22.5h-54.973c.643-.574 1.276-1.163 1.892-1.778 12.799-12.811 16.67-31.927 9.863-48.701-.762-1.879-2.253-3.369-4.132-4.131-7.498-3.039-15.459-3.94-23.117-2.871v-57.097c0-3.073-1.176-5.87-3.089-7.988 2.457-4.269 3.519-9.288 2.935-14.281-1.067-9.125-6.664-17.344-15.757-23.143-2.712-1.728-6.027-2.19-9.1-1.265-3.089.93-5.616 3.161-6.933 6.12-.465 1.044-1.822 2.403-3.259 3.842-3.483 3.49-8.748 8.764-8.748 17.781 0 3.953 1.046 7.722 2.977 11.035-1.865 2.108-3.007 4.869-3.007 7.898v36.991c-4.135-2.402-8.584-3.791-13.289-3.791-7.686 0-14.692 3.693-20.75 9.483l-7.496-7.497c8.181-6.06 14.299-12.544 17.991-19.312 5.342-9.793 5.602-20.043.752-29.643-4.251-8.412-10.907-13.689-19.251-15.262-17.011-3.203-36.823 9.897-46.395 17.309l-26.355-26.358c-6.823-6.805-17.922-6.804-24.749.007l-88.189 88.2c-3.311 3.311-5.133 7.709-5.13 12.388.003 4.673 1.827 9.065 5.129 12.359l5.964 5.965c-1.26 1.626-2.356 3.342-3.279 5.153-5.521 10.834-3.357 21.916-1.03 28.588h-28.569c-12.406 0-22.5 10.093-22.5 22.5l.001 15.831c0 6.405 4.831 11.75 11.237 12.435.88.094 1.68.232 2.448.388v12.457c0 4.142 3.357 7.5 7.5 7.5s7.5-3.358 7.5-7.5v-5.231c4.487 2.252 10.227 4.199 18.722 4.199 12.059 0 18.58-3.922 23.82-7.073 4.577-2.753 8.193-4.927 16.089-4.927s11.512 2.174 16.089 4.927c5.239 3.151 11.761 7.073 23.818 7.073s18.578-3.922 23.817-7.073c4.577-2.752 8.192-4.927 16.086-4.927 7.896 0 11.512 2.174 16.089 4.927 5.239 3.151 11.761 7.073 23.819 7.073s18.58-3.921 23.819-7.073c4.577-2.753 8.193-4.927 16.089-4.927s11.512 2.174 16.09 4.927c5.24 3.151 11.762 7.073 23.821 7.073s18.58-3.921 23.819-7.073c4.577-2.753 8.193-4.927 16.089-4.927 7.897 0 11.514 2.174 16.092 4.927 5.241 3.151 11.763 7.073 23.823 7.073 8.499 0 14.241-1.948 18.729-4.201v50.984c-1.625 1.369-2.953 3.095-3.844 5.094-1.343 3.022-4.133 5.816-7.362 9.052-.671.672-1.36 1.366-2.054 2.078-6.586-7.708-16.273-12.334-26.88-12.334-8.109 0-15.865 2.794-22.061 7.729-4.991-5.851-10.602-10.064-14.787-12.734-3.451-2.199-7.67-2.789-11.579-1.613-3.94 1.184-7.166 4.032-8.855 7.821-1.343 3.022-4.133 5.816-7.362 9.052-.67.671-1.359 1.365-2.052 2.076-6.592-7.707-16.277-12.332-26.871-12.332-8.109 0-15.865 2.793-22.064 7.727-4.993-5.851-10.605-10.061-14.788-12.727-3.449-2.205-7.672-2.795-11.586-1.617-3.945 1.188-7.171 4.04-8.845 7.815-1.346 3.022-4.136 5.816-7.366 9.052-.671.672-1.362 1.367-2.056 2.079-6.589-7.706-16.275-12.33-26.875-12.33-8.109 0-15.865 2.793-22.064 7.727-4.991-5.849-10.601-10.062-14.786-12.732-3.452-2.199-7.67-2.787-11.577-1.613-3.939 1.184-7.167 4.032-8.855 7.817-1.346 3.023-4.135 5.817-7.363 9.052-.672.673-1.362 1.368-2.057 2.081-6.585-7.707-16.271-12.331-26.878-12.331-8.11 0-15.865 2.794-22.062 7.729-4.605-5.397-9.734-9.4-13.789-12.084v-8.266c0-4.142-3.357-7.5-7.5-7.5s-7.5 3.358-7.5 7.5v7.002c-2.823 1.465-5.107 3.846-6.433 6.821-1.343 3.022-4.133 5.816-7.362 9.052-6.391 6.402-14.345 14.37-14.345 28.434 0 2.26.233 4.498.667 6.689h-16.717c-10.174.002-18.451 8.278-18.451 18.452v4.15c0 22.25 18.103 40.353 40.353 40.353h187.127v35.354h-53.627c-15.889 0-28.814 12.926-28.814 28.814v7.317c0 10.012 8.146 18.157 18.157 18.157h185.607c10.012 0 18.157-8.146 18.157-18.157v-7.317c0-15.888-12.926-28.814-28.814-28.814h-53.626v-35.354h90.324c4.143 0 7.5-3.358 7.5-7.5s-3.357-7.5-7.5-7.5h-334.491c-13.98 0-25.353-11.373-25.353-25.353v-4.15c0-1.903 1.548-3.451 3.451-3.451h475.098c1.903 0 3.451 1.548 3.451 3.451v4.15c0 13.979-11.373 25.353-25.353 25.353h-59.777c-4.143 0-7.5 3.358-7.5 7.5s3.357 7.5 7.5 7.5h59.777c22.25 0 40.353-18.102 40.353-40.353v-4.15c0-10.174-8.277-18.45-18.451-18.45zm-141.588 127.122v7.317c0 1.741-1.416 3.157-3.157 3.157h-185.608c-1.741 0-3.157-1.417-3.157-3.157v-7.317c0-7.617 6.197-13.814 13.814-13.814h164.293c7.618-.001 13.815 6.196 13.815 13.814zm-82.441-28.815h-27.04v-35.354h27.039v35.354zm84.992-290.416c7.757-7.757 19.593-11.244 29.977-8.287 2.96 10.38.123 21.621-7.63 29.381-5.954 5.948-13.867 8.993-21.95 8.763 1.382-3.915 2.111-8.183 2.111-12.737 0-4.996-.873-10.917-2.508-17.12zm-5.408-15.262c-2.251-5.02-4.938-9.883-8.005-14.257v-48.521h13.98v58.929c-2.075 1.112-4.071 2.4-5.975 3.849zm-3.61-91.955c1.266-1.268 2.626-2.631 3.858-4.229 2.718 2.376 5.186 5.633 5.675 9.819.266 2.271-.409 4.54-1.853 6.225-.879 1.026-2.421 2.269-4.772 2.357-1.93.07-3.748-.62-5.128-1.95-1.383-1.332-2.145-3.121-2.145-5.04.001-2.568 1.198-4.009 4.365-7.182zm-32.683 74.317c14.195 0 29.209 32.527 29.209 50.02 0 7.194-2.5 12.562-7.61 16.358h-43.187c-5.054-3.771-7.623-9.261-7.623-16.358 0-17.493 15.014-50.02 29.211-50.02zm-43.619 56.988c.585 3.348 1.612 6.488 3.035 9.391h-12.422zm12.096-119.477c2.35.445 5.801 1.684 8.63 7.284 2.635 5.213 2.466 10.201-.531 15.695-2.879 5.277-8.184 10.605-15.564 15.752l-25.431-25.434c8.885-6.549 23.22-15.132 32.896-13.297zm-172.314 75.022 88.184-88.194c.979-.978 2.575-.978 3.549-.007l59.826 59.833c-5.185 2.68-10.934 5.27-17.205 7.731-25.294 9.928-56.888 17.081-91.365 20.687-15.199 1.59-27.293 5.029-36.205 10.269l-6.79-6.792c-.634-.632-.729-1.371-.729-1.755-.002-.387.093-1.131.735-1.772zm6.79 52.601c-.063-.111-6.177-11.197-1.304-20.619.193-.374.425-.734.649-1.097l22.956 22.96h-21.749c-.146-.423-.326-.84-.552-1.244zm299.868 48.823c-7.898 0-11.515-2.174-16.094-4.928-5.24-3.151-11.762-7.072-23.821-7.072s-18.58 3.922-23.819 7.073c-4.577 2.753-8.193 4.927-16.089 4.927s-11.513-2.174-16.091-4.927c-5.24-3.151-11.762-7.073-23.82-7.073s-18.58 3.922-23.819 7.073c-4.577 2.753-8.193 4.927-16.089 4.927s-11.512-2.174-16.089-4.927c-5.239-3.151-11.761-7.073-23.819-7.073s-18.577 3.922-23.816 7.073c-4.577 2.753-8.192 4.927-16.087 4.927s-11.511-2.174-16.088-4.927c-5.239-3.151-11.761-7.073-23.819-7.073s-18.579 3.921-23.819 7.073c-4.578 2.753-8.193 4.927-16.09 4.927-7.896 0-11.511-2.174-16.089-4.927-3.976-2.391-8.841-5.316-16.318-6.512l-.001-13.64c0-4.136 3.364-7.5 7.5-7.5h104.063c4.143 0 7.5-3.358 7.5-7.5s-3.357-7.5-7.5-7.5h-16.24l-32.417-32.424c6.693-3.111 15.637-5.299 26.665-6.453 48.775-5.101 90.569-16.822 118.11-32.235l10.976 10.977c-5.449 8.577-9.519 18.631-11.83 27.94l-32.184 32.194h-26.052c-4.143 0-7.5 3.358-7.5 7.5s3.357 7.5 7.5 7.5h29.127c.01 0 .021.001.031.001s.02-.001.031-.001h198.816c4.136 0 7.5 3.364 7.5 7.5v13.637c-7.446 1.178-12.139 4-16.322 6.514-4.583 2.755-8.2 4.929-16.097 4.929zm18.139 86.525c3.703-3.709 7.524-7.538 10.018-12.624 7.84 5.196 17.06 13.921 18.563 26.769.417 3.538-.058 7.113-1.325 10.381h-36.027c-.781-2.126-1.189-4.388-1.189-6.689 0-7.478 3.785-11.65 9.96-17.837zm-39.551-5.852c7.341 0 13.926 3.828 17.556 9.975-1.796 3.85-2.965 8.334-2.965 13.715 0 2.26.233 4.498.667 6.689h-26.408c.863-3.957 1.079-8.062.6-12.131-.543-4.64-1.766-8.866-3.425-12.698 3.748-3.524 8.733-5.55 13.975-5.55zm-54.03 5.852c3.703-3.709 7.524-7.538 10.018-12.624 7.84 5.196 17.06 13.921 18.563 26.769.417 3.538-.058 7.113-1.325 10.381h-36.026c-.781-2.126-1.189-4.387-1.189-6.689-.001-7.478 3.785-11.65 9.959-17.837zm-39.54-5.852c7.326 0 13.908 3.825 17.549 9.968-1.798 3.852-2.969 8.337-2.969 13.722 0 2.26.233 4.498.667 6.689h-26.407c.864-3.954 1.083-8.059.61-12.131-.544-4.642-1.767-8.869-3.427-12.702 3.75-3.521 8.736-5.546 13.977-5.546zm-54.034 5.849c3.698-3.704 7.516-7.527 10.019-12.617 7.842 5.192 17.062 13.913 18.565 26.753.412 3.544-.065 7.123-1.334 10.393h-36.026c-.781-2.126-1.189-4.387-1.189-6.689-.001-7.48 3.787-11.652 9.965-17.84zm-39.546-5.849c7.333 0 13.916 3.824 17.551 9.964-1.799 3.853-2.971 8.339-2.971 13.725 0 2.26.233 4.498.667 6.689h-26.407c.864-3.954 1.083-8.059.609-12.131-.543-4.642-1.767-8.869-3.427-12.703 3.751-3.519 8.737-5.544 13.978-5.544zm-54.028 5.847c3.7-3.708 7.52-7.534 10.015-12.619 7.841 5.197 17.062 13.922 18.563 26.758.413 3.544-.065 7.122-1.333 10.392h-36.017c-.782-2.127-1.19-4.388-1.19-6.689 0-7.482 3.785-11.654 9.962-17.842zm-39.552-5.847c7.341 0 13.926 3.827 17.555 9.973-1.796 3.851-2.965 8.335-2.965 13.717 0 2.26.233 4.498.667 6.689h-26.408c.864-3.957 1.079-8.062.6-12.131-.543-4.64-1.766-8.866-3.426-12.699 3.75-3.523 8.735-5.549 13.977-5.549zm-63.99 23.69c0-7.479 3.785-11.65 9.961-17.837 3.702-3.71 7.524-7.539 10.018-12.624 7.84 5.197 17.06 13.923 18.563 26.769.417 3.538-.058 7.112-1.326 10.381h-36.026c-.782-2.127-1.19-4.389-1.19-6.689z"/></g></g></g></g></g></g></svg>